<mxfile host="app.diagrams.net" modified="2023-09-16T01:19:48.055Z" agent="Mozilla/5.0 (Windows NT 10.0; Win64; x64; rv:109.0) Gecko/20100101 Firefox/117.0" etag="XVJmrn3KKUA4bWNRFCy-" version="21.7.5" type="device">
  <diagram name="Page-1" id="TH6FtXGc9s8SnoiG1zvZ">
    <mxGraphModel dx="1729" dy="467" grid="1" gridSize="10" guides="1" tooltips="1" connect="1" arrows="1" fold="1" page="1" pageScale="1" pageWidth="850" pageHeight="1100" math="0" shadow="0">
      <root>
        <mxCell id="0" />
        <mxCell id="1" parent="0" />
        <mxCell id="xo0qbgTMVTIfftj7kOIs-21" style="edgeStyle=orthogonalEdgeStyle;rounded=0;orthogonalLoop=1;jettySize=auto;html=1;entryX=1;entryY=0.5;entryDx=0;entryDy=0;entryPerimeter=0;dashed=1;" edge="1" parent="1" source="xo0qbgTMVTIfftj7kOIs-31" target="xo0qbgTMVTIfftj7kOIs-2">
          <mxGeometry relative="1" as="geometry">
            <Array as="points" />
          </mxGeometry>
        </mxCell>
        <mxCell id="xo0qbgTMVTIfftj7kOIs-19" value="" style="rounded=0;whiteSpace=wrap;html=1;fillColor=none;" vertex="1" parent="1">
          <mxGeometry x="450" y="130" width="180" height="150" as="geometry" />
        </mxCell>
        <mxCell id="xo0qbgTMVTIfftj7kOIs-3" style="edgeStyle=orthogonalEdgeStyle;rounded=0;orthogonalLoop=1;jettySize=auto;html=1;entryX=0;entryY=0.5;entryDx=0;entryDy=0;entryPerimeter=0;" edge="1" parent="1" source="xo0qbgTMVTIfftj7kOIs-1" target="xo0qbgTMVTIfftj7kOIs-2">
          <mxGeometry relative="1" as="geometry" />
        </mxCell>
        <mxCell id="xo0qbgTMVTIfftj7kOIs-1" value="Entry" style="ellipse;whiteSpace=wrap;html=1;aspect=fixed;fillColor=#000000;fontColor=#F0F0F0;fontStyle=1" vertex="1" parent="1">
          <mxGeometry x="180" y="309.5" width="60" height="60" as="geometry" />
        </mxCell>
        <mxCell id="xo0qbgTMVTIfftj7kOIs-5" style="edgeStyle=orthogonalEdgeStyle;rounded=0;orthogonalLoop=1;jettySize=auto;html=1;entryX=0.5;entryY=1;entryDx=0;entryDy=0;" edge="1" parent="1" source="xo0qbgTMVTIfftj7kOIs-2" target="xo0qbgTMVTIfftj7kOIs-4">
          <mxGeometry relative="1" as="geometry" />
        </mxCell>
        <mxCell id="xo0qbgTMVTIfftj7kOIs-2" value="" style="outlineConnect=0;dashed=0;verticalLabelPosition=bottom;verticalAlign=top;align=center;html=1;shape=mxgraph.aws3.android;fillColor=#1B260F;gradientColor=none;" vertex="1" parent="1">
          <mxGeometry x="320" y="313" width="50" height="54" as="geometry" />
        </mxCell>
        <mxCell id="xo0qbgTMVTIfftj7kOIs-38" style="edgeStyle=orthogonalEdgeStyle;rounded=0;orthogonalLoop=1;jettySize=auto;html=1;entryX=1;entryY=0.5;entryDx=0;entryDy=0;entryPerimeter=0;dashed=1;startArrow=classic;startFill=1;" edge="1" parent="1" source="xo0qbgTMVTIfftj7kOIs-4" target="xo0qbgTMVTIfftj7kOIs-37">
          <mxGeometry relative="1" as="geometry" />
        </mxCell>
        <mxCell id="xo0qbgTMVTIfftj7kOIs-4" value="" style="shape=image;html=1;verticalAlign=top;verticalLabelPosition=bottom;labelBackgroundColor=#ffffff;imageAspect=0;aspect=fixed;image=https://cdn1.iconfinder.com/data/icons/ionicons-fill-vol-2/512/logo-chrome-128.png" vertex="1" parent="1">
          <mxGeometry x="321" y="170" width="48" height="48" as="geometry" />
        </mxCell>
        <mxCell id="xo0qbgTMVTIfftj7kOIs-6" style="edgeStyle=orthogonalEdgeStyle;rounded=0;orthogonalLoop=1;jettySize=auto;html=1;" edge="1" parent="1" source="xo0qbgTMVTIfftj7kOIs-4" target="xo0qbgTMVTIfftj7kOIs-4">
          <mxGeometry relative="1" as="geometry" />
        </mxCell>
        <mxCell id="xo0qbgTMVTIfftj7kOIs-9" value="" style="dashed=0;outlineConnect=0;html=1;align=center;labelPosition=center;verticalLabelPosition=bottom;verticalAlign=top;shape=mxgraph.weblogos.json" vertex="1" parent="1">
          <mxGeometry x="474.32" y="176.1" width="50" height="55.8" as="geometry" />
        </mxCell>
        <mxCell id="xo0qbgTMVTIfftj7kOIs-14" value="" style="sketch=0;outlineConnect=0;fontColor=#232F3E;gradientColor=none;fillColor=#232F3D;strokeColor=none;dashed=0;verticalLabelPosition=bottom;verticalAlign=top;align=center;html=1;fontSize=12;fontStyle=0;aspect=fixed;pointerEvents=1;shape=mxgraph.aws4.traditional_server;" vertex="1" parent="1">
          <mxGeometry x="553.94" y="173.9" width="33.46" height="58" as="geometry" />
        </mxCell>
        <mxCell id="xo0qbgTMVTIfftj7kOIs-15" value="&lt;br&gt;User Account Data&lt;br&gt;&lt;font color=&quot;#0000cc&quot;&gt;(General DB)&lt;/font&gt;" style="text;html=1;strokeColor=none;fillColor=none;align=center;verticalAlign=middle;whiteSpace=wrap;rounded=0;" vertex="1" parent="1">
          <mxGeometry x="516.06" y="231.9" width="109.23" height="30" as="geometry" />
        </mxCell>
        <mxCell id="xo0qbgTMVTIfftj7kOIs-17" value="Cached Data&lt;br&gt;&lt;font color=&quot;#0000cc&quot;&gt;(General DB)&lt;/font&gt;" style="text;html=1;strokeColor=none;fillColor=none;align=center;verticalAlign=middle;whiteSpace=wrap;rounded=0;" vertex="1" parent="1">
          <mxGeometry x="444.71" y="140" width="109.23" height="30" as="geometry" />
        </mxCell>
        <mxCell id="xo0qbgTMVTIfftj7kOIs-18" value="&lt;div&gt;Backend&lt;/div&gt;&lt;div&gt;&lt;font color=&quot;#0000cc&quot;&gt;(Node.js)&lt;/font&gt;&lt;br&gt;&lt;/div&gt;" style="text;html=1;strokeColor=none;fillColor=none;align=center;verticalAlign=middle;whiteSpace=wrap;rounded=0;" vertex="1" parent="1">
          <mxGeometry x="290.39" y="370" width="109.23" height="30" as="geometry" />
        </mxCell>
        <mxCell id="xo0qbgTMVTIfftj7kOIs-20" value="Server&lt;br&gt;&lt;font color=&quot;#0000cc&quot;&gt;(Repl Hosted)&lt;/font&gt;" style="text;html=1;strokeColor=none;fillColor=none;align=center;verticalAlign=middle;whiteSpace=wrap;rounded=0;" vertex="1" parent="1">
          <mxGeometry x="485.38999999999993" y="90" width="109.23" height="30" as="geometry" />
        </mxCell>
        <mxCell id="xo0qbgTMVTIfftj7kOIs-22" value="Fetch&lt;br&gt;&lt;font color=&quot;#0000cc&quot;&gt;(HTTP)&lt;/font&gt;" style="text;html=1;strokeColor=none;fillColor=none;align=center;verticalAlign=middle;whiteSpace=wrap;rounded=0;" vertex="1" parent="1">
          <mxGeometry x="449.99999999999994" y="340" width="109.23" height="30" as="geometry" />
        </mxCell>
        <mxCell id="xo0qbgTMVTIfftj7kOIs-29" style="edgeStyle=orthogonalEdgeStyle;rounded=0;orthogonalLoop=1;jettySize=auto;html=1;entryX=0;entryY=0.5;entryDx=0;entryDy=0;" edge="1" parent="1" source="xo0qbgTMVTIfftj7kOIs-23" target="xo0qbgTMVTIfftj7kOIs-1">
          <mxGeometry relative="1" as="geometry" />
        </mxCell>
        <mxCell id="xo0qbgTMVTIfftj7kOIs-23" value="" style="shape=image;html=1;verticalAlign=top;verticalLabelPosition=bottom;labelBackgroundColor=#ffffff;imageAspect=0;aspect=fixed;image=https://cdn2.iconfinder.com/data/icons/css-vol-1/24/c-plus-plus-128.png" vertex="1" parent="1">
          <mxGeometry x="60" y="310" width="59" height="59" as="geometry" />
        </mxCell>
        <mxCell id="xo0qbgTMVTIfftj7kOIs-24" value="&lt;div&gt;Initializer&lt;/div&gt;&lt;div&gt;&lt;font color=&quot;#0000cc&quot;&gt;(C++)&lt;/font&gt;&lt;br&gt;&lt;/div&gt;" style="text;html=1;strokeColor=none;fillColor=none;align=center;verticalAlign=middle;whiteSpace=wrap;rounded=0;" vertex="1" parent="1">
          <mxGeometry x="34.889999999999986" y="370" width="109.23" height="30" as="geometry" />
        </mxCell>
        <mxCell id="xo0qbgTMVTIfftj7kOIs-28" style="edgeStyle=orthogonalEdgeStyle;rounded=0;orthogonalLoop=1;jettySize=auto;html=1;entryX=0;entryY=0.5;entryDx=0;entryDy=0;" edge="1" parent="1" source="xo0qbgTMVTIfftj7kOIs-26" target="xo0qbgTMVTIfftj7kOIs-23">
          <mxGeometry relative="1" as="geometry" />
        </mxCell>
        <mxCell id="xo0qbgTMVTIfftj7kOIs-26" value="" style="sketch=0;pointerEvents=1;shadow=0;dashed=0;html=1;strokeColor=none;fillColor=#030303;labelPosition=center;verticalLabelPosition=bottom;verticalAlign=top;outlineConnect=0;align=center;shape=mxgraph.office.devices.cd_dvd;" vertex="1" parent="1">
          <mxGeometry x="-49" y="315" width="49" height="49" as="geometry" />
        </mxCell>
        <mxCell id="xo0qbgTMVTIfftj7kOIs-27" value="&lt;div&gt;Installer&lt;br&gt;&lt;/div&gt;&lt;div&gt;&lt;font color=&quot;#0000cc&quot;&gt;(Inno)&lt;/font&gt;&lt;br&gt;&lt;/div&gt;" style="text;html=1;strokeColor=none;fillColor=none;align=center;verticalAlign=middle;whiteSpace=wrap;rounded=0;" vertex="1" parent="1">
          <mxGeometry x="-79.11000000000001" y="370" width="109.23" height="30" as="geometry" />
        </mxCell>
        <mxCell id="xo0qbgTMVTIfftj7kOIs-32" value="" style="edgeStyle=orthogonalEdgeStyle;rounded=0;orthogonalLoop=1;jettySize=auto;html=1;entryX=1;entryY=0.5;entryDx=0;entryDy=0;entryPerimeter=0;dashed=1;startArrow=classic;startFill=1;" edge="1" parent="1" source="xo0qbgTMVTIfftj7kOIs-19" target="xo0qbgTMVTIfftj7kOIs-31">
          <mxGeometry relative="1" as="geometry">
            <mxPoint x="540" y="280" as="sourcePoint" />
            <mxPoint x="370" y="340" as="targetPoint" />
            <Array as="points">
              <mxPoint x="540" y="340" />
            </Array>
          </mxGeometry>
        </mxCell>
        <mxCell id="xo0qbgTMVTIfftj7kOIs-31" value="" style="sketch=0;pointerEvents=1;shadow=0;dashed=0;html=1;strokeColor=none;fillColor=#000000;labelPosition=center;verticalLabelPosition=bottom;verticalAlign=top;align=center;outlineConnect=0;shape=mxgraph.veeam2.encrypted;" vertex="1" parent="1">
          <mxGeometry x="390" y="329.5" width="21" height="21" as="geometry" />
        </mxCell>
        <mxCell id="xo0qbgTMVTIfftj7kOIs-33" value="" style="sketch=0;pointerEvents=1;shadow=0;dashed=0;html=1;strokeColor=none;fillColor=#000000;labelPosition=center;verticalLabelPosition=bottom;verticalAlign=top;align=center;outlineConnect=0;shape=mxgraph.veeam2.encrypted;" vertex="1" parent="1">
          <mxGeometry x="529.5" y="296" width="21" height="21" as="geometry" />
        </mxCell>
        <mxCell id="xo0qbgTMVTIfftj7kOIs-34" value="&lt;p align=&quot;left&quot; style=&quot;line-height: 100%;&quot;&gt;&lt;font style=&quot;font-size: 8px;&quot; color=&quot;#0000cc&quot;&gt;(Basic Encryption)&lt;/font&gt;&lt;/p&gt;" style="text;html=1;strokeColor=none;fillColor=none;align=left;verticalAlign=middle;whiteSpace=wrap;rounded=0;" vertex="1" parent="1">
          <mxGeometry x="549.5" y="294" width="79.5" height="21" as="geometry" />
        </mxCell>
        <mxCell id="xo0qbgTMVTIfftj7kOIs-35" value="&lt;p align=&quot;left&quot; style=&quot;line-height: 100%;&quot;&gt;&lt;font style=&quot;font-size: 8px;&quot; color=&quot;#0000cc&quot;&gt;(Basic Encryption)&lt;/font&gt;&lt;/p&gt;" style="text;html=1;strokeColor=none;fillColor=none;align=left;verticalAlign=middle;whiteSpace=wrap;rounded=0;" vertex="1" parent="1">
          <mxGeometry x="411" y="315" width="79.5" height="21" as="geometry" />
        </mxCell>
        <mxCell id="xo0qbgTMVTIfftj7kOIs-37" value="" style="outlineConnect=0;dashed=0;verticalLabelPosition=bottom;verticalAlign=top;align=center;html=1;shape=mxgraph.aws3.cache_node;fillColor=#010203;gradientColor=none;" vertex="1" parent="1">
          <mxGeometry x="230" y="168.45000000000002" width="50" height="51.1" as="geometry" />
        </mxCell>
      </root>
    </mxGraphModel>
  </diagram>
</mxfile>
